<?xml version="1.0" ?><!DOCTYPE svg  PUBLIC '-//W3C//DTD SVG 1.1//EN'  'http://www.w3.org/Graphics/SVG/1.1/DTD/svg11.dtd'><svg enable-background="new 0 0 70 70" id="Layer_1" version="1.1" viewBox="0 0 70 70" xml:space="preserve" xmlns="http://www.w3.org/2000/svg" xmlns:xlink="http://www.w3.org/1999/xlink"><g><path d="M32.6425781,66.1791992c-2.9990234,0-6.0371094-0.0776367-9.0292969-0.2304688   c-2.8037109-0.1435547-5.7226563-0.4375-7.8974609-2.2817383c-2.5566406-2.1689453-3.1542969-5.6689453-3.4199219-9.128418   c-0.5292969-6.9160156-0.4814453-13.9257813,0.140625-20.8354492c0.2919922-3.2353516,0.7548828-7.0224609,1.9824219-10.5800781   c1.3144531-3.8105469,3.3945313-6.9477539,6.0136719-9.0727539C24.0029297,11.152832,28.875,9.7446289,35.3271484,9.7446289   c1.0703125,0,2.1679688,0.0371094,3.3564453,0.1132813c3.7597656,0.2412109,8.0537109,0.8232422,11.4052734,3.3081055   c4.7822266,3.5458984,6.2578125,9.8500977,7.0097656,14.9458008c1.4482422,9.8173828,1.4335938,19.7714844-0.0439453,29.5849609   c-0.2978516,1.9833984-0.7490234,4.2255859-2.3408203,5.7285156c-1.5957031,1.5073242-3.8271484,1.824707-5.9765625,2.0209961   C43.4101563,65.9326172,37.9951172,66.1791992,32.6425781,66.1791992z M35.3271484,11.2446289   c-6.09375,0-10.65625,1.2988281-13.9492188,3.9707031c-2.4023438,1.9477539-4.3183594,4.8515625-5.5410156,8.3969727   c-1.1748047,3.4057617-1.6230469,7.0800781-1.90625,10.2255859c-0.6152344,6.8266602-0.6621094,13.7529297-0.1386719,20.5864258   c0.2402344,3.1347656,0.7568359,6.2856445,2.8945313,8.0991211c1.8164063,1.5410156,4.4560547,1.796875,7.0029297,1.9272461   c8.2646484,0.4233398,16.6708984,0.2543945,24.9111328-0.4985352c1.8876953-0.171875,3.8359375-0.4384766,5.0839844-1.6176758   c1.2441406-1.1743164,1.6142578-3.0454102,1.8876953-4.8608398c1.4541016-9.6669922,1.46875-19.472168,0.0419922-29.1430664   c-0.7089844-4.809082-2.0791016-10.7421875-6.4179688-13.9594727c-3.0390625-2.2529297-7.0683594-2.7890625-10.6083984-3.0161133   C37.4316406,11.2807617,36.3652344,11.2446289,35.3271484,11.2446289z" fill="#373684"/><path d="M50.5800781,27.3427734c-0.4042969,0-0.7373047-0.3208008-0.75-0.7265625   c-0.1259766-4.0561523-2.8144531-8.0136719-6.5390625-9.6245117c-2.4257813-1.0498047-5.1513672-1.1738281-7.4970703-1.1645508   c-4.3769531,0.0249023-7.4824219,0.6318359-10.0703125,1.9672852c-3.2089844,1.6567383-5.4101563,4.6699219-5.609375,7.6757813   c-0.0263672,0.4130859-0.3720703,0.7250977-0.7978516,0.6992188c-0.4130859-0.0273438-0.7255859-0.3847656-0.6982422-0.7978516   c0.2353516-3.5737305,2.6953125-6.987793,6.4179688-8.9101563c2.8076172-1.4492188,6.1230469-2.1079102,10.75-2.1342773   c2.5136719-0.0126953,5.4199219,0.1279297,8.1005859,1.2875977c4.3066406,1.862793,7.2978516,6.2651367,7.4433594,10.9545898   c0.0126953,0.4140625-0.3125,0.7602539-0.7265625,0.7729492C50.5957031,27.3427734,50.5878906,27.3427734,50.5800781,27.3427734z" fill="#373684"/><path d="M25.0224609,60.3710938c-2.1357422,0-4.2783203-0.2290039-5.4853516-1.8911133   c-0.8027344-1.1044922-0.8710938-2.5322266-0.9208984-3.5751953l-0.6621094-13.8862305   c-0.0869141-1.8300781-0.1953125-4.1074219,0.8974609-6.0092773c1.0771484-1.8735352,3.0585938-2.9140625,4.6640625-3.6118164   c5.7734375-2.5063477,12.5214844-3.1958008,18.6826172-1.9052734c4.0039063,0.8383789,6.7871094,2.472168,8.2714844,4.855957   c1.6650391,2.6743164,1.5292969,5.9848633,1.4199219,8.6450195l-0.5527344,13.5830078   c-0.0263672,0.6694336-0.0634766,1.5874023-0.5742188,2.3417969c-0.9570313,1.4160156-2.9248047,1.4194336-3.8701172,1.4208984   L25.0224609,60.3710938z M35.8955078,30.3432617c-4.0478516,0-8.1220703,0.840332-11.7822266,2.4301758   c-1.3935547,0.6054688-3.1035156,1.4916992-3.9609375,2.9833984C19.2783203,37.277832,19.375,39.3125,19.4521484,40.9472656   l0.6621094,13.8862305c0.0429688,0.9008789,0.0966797,2.0229492,0.6357422,2.7646484   c0.8125,1.1186523,2.5341797,1.2729492,4.2724609,1.2729492v0.75l0.0458984-0.75l21.8222656-0.0322266   c1.0996094-0.0019531,2.1796875-0.0952148,2.6298828-0.7607422c0.2509766-0.3720703,0.2910156-0.9047852,0.3183594-1.5629883   l0.5527344-13.5830078c0.1230469-3.0141602,0.1181641-5.6811523-1.1953125-7.7910156   c-1.2597656-2.0229492-3.7177734-3.4296875-7.3046875-4.1811523   C39.9365234,30.5507813,37.9199219,30.3432617,35.8955078,30.3432617z" fill="#373684"/><path d="M43.4140625,38.9604492c-0.0029297,0-0.0058594,0-0.0087891,0L26.7402344,38.762207   c-0.4140625-0.0048828-0.7460938-0.3447266-0.7412109-0.7587891c0.0048828-0.4111328,0.3398438-0.7412109,0.75-0.7412109   c0.0029297,0,0.0058594,0,0.0087891,0l16.6650391,0.1982422c0.4140625,0.0048828,0.7460938,0.3447266,0.7412109,0.7587891   C44.1591797,38.6303711,43.8242188,38.9604492,43.4140625,38.9604492z" fill="#373684"/><path d="M40.9335938,41.9995117c-0.4052734,0-0.7382813-0.3222656-0.75-0.7290039l-0.0703125-2.5004883   c-0.0117188-0.4140625,0.3144531-0.7592773,0.7285156-0.7705078c0.4501953-0.0322266,0.7597656,0.3149414,0.7714844,0.7285156   l0.0703125,2.5004883c0.0117188,0.4140625-0.3144531,0.7592773-0.7285156,0.7705078   C40.9472656,41.9995117,40.9404297,41.9995117,40.9335938,41.9995117z" fill="#373684"/><path d="M58.4121094,57.9604492c-0.6679688,0-1.3232422-0.0742188-1.9628906-0.1464844   c-0.4121094-0.0463867-0.7080078-0.4174805-0.6611328-0.8291016c0.0458984-0.4125977,0.4228516-0.7109375,0.8291016-0.6611328   c0.8759766,0.0986328,1.7822266,0.199707,2.6220703,0.0830078c0.8574219-0.1196289,1.5576172-0.46875,1.9716797-0.9829102   c0.6835938-0.8476563,0.6582031-2.1352539,0.5683594-3.4921875l-0.2695313-4.0512695   c-0.0947266-1.4223633-0.1933594-2.8935547-0.8144531-4.1293945c-0.5029297-1-1.6054688-2.0161133-2.8457031-1.9067383   c-0.4052734,0.0371094-0.7783203-0.2641602-0.8173828-0.6762695c-0.0380859-0.4121094,0.2646484-0.7783203,0.6767578-0.8168945   c1.9560547-0.1796875,3.5771484,1.2368164,4.3261719,2.7260742c0.7578125,1.5068359,0.8710938,3.2050781,0.9707031,4.7036133   l0.2695313,4.0512695c0.1064453,1.5986328,0.1259766,3.2651367-0.8964844,4.5332031   c-0.6542969,0.8125-1.6962891,1.3544922-2.9316406,1.5268555C59.0986328,57.940918,58.7539063,57.9604492,58.4121094,57.9604492z" fill="#373684"/><path d="M11.7734375,58.043457c-0.1708984,0-0.34375-0.0141602-0.5185547-0.0429688   c-0.9931641-0.1616211-1.9404297-0.7563477-2.5341797-1.5898438c-0.9482422-1.3354492-1.1015625-3.0117188-1.2246094-4.3583984   c-0.1962891-2.1621094-0.3994141-4.3969727,0.0869141-6.6123047c0.5605469-2.5566406,2.0683594-4.6269531,4.0322266-5.5380859   c0.3691406-0.1748047,0.8203125-0.0126953,0.9960938,0.3647461c0.1738281,0.3754883,0.0107422,0.8212891-0.3652344,0.9956055   c-1.5410156,0.715332-2.7373047,2.3974609-3.1982422,4.4990234c-0.4365234,1.9892578-0.2441406,4.1069336-0.0576172,6.1547852   c0.1123047,1.2280273,0.2392578,2.6201172,0.953125,3.625c0.3544922,0.4990234,0.9648438,0.8833008,1.5527344,0.9794922   c0.2792969,0.046875,0.6884766,0.0473633,1.0371094-0.2070313c0.3369141-0.2460938,0.8056641-0.1694336,1.0478516,0.1650391   c0.2441406,0.3349609,0.1699219,0.8041992-0.1650391,1.0478516C12.9492188,57.8662109,12.3789063,58.043457,11.7734375,58.043457z" fill="#373684"/><path d="M28.3691406,11.5932617c-0.3291016,0-0.6298828-0.2172852-0.7226563-0.5488281   c-0.6630859-2.3823242,0.9736328-4.7988281,2.9394531-5.7587891c1.7167969-0.8388672,3.9169922-0.9394531,6.3671875-0.2910156   C38.59375,5.4296875,39.8183594,6.0625,40.6972656,6.9291992c1.2421875,1.2265625,1.6708984,2.5532227,1.2734375,3.9433594   c-0.1132813,0.3969727-0.5205078,0.6308594-0.9267578,0.5151367c-0.3984375-0.1137695-0.6289063-0.5288086-0.5146484-0.9272461   c0.1513672-0.5322266,0.2255859-1.3671875-0.8857422-2.4633789c-0.6972656-0.6875-1.6748047-1.1806641-3.0751953-1.5522461   c-1.4599609-0.387207-3.5703125-0.6679688-5.3242188,0.1884766c-1.3837891,0.6762695-2.5996094,2.4008789-2.1523438,4.0087891   c0.1113281,0.3989258-0.1220703,0.8125-0.5214844,0.9238281C28.5029297,11.5844727,28.4355469,11.5932617,28.3691406,11.5932617z" fill="#373684"/><path d="M11.0605469,54.0629883c-0.3095703,0-0.5996094-0.1933594-0.7080078-0.5024414   c-0.8164063-2.3359375-1.0332031-4.8613281-0.6269531-7.3037109c0.0683594-0.4091797,0.4511719-0.6860352,0.8632813-0.6166992   c0.4082031,0.0678711,0.6845703,0.4541016,0.6171875,0.862793c-0.3652344,2.1948242-0.1708984,4.4638672,0.5625,6.5625   c0.1367188,0.3911133-0.0693359,0.8188477-0.4609375,0.9555664C11.2265625,54.0498047,11.1425781,54.0629883,11.0605469,54.0629883   z" fill="#373684"/><path d="M59.4580078,54.421875c-0.03125,0-0.0625-0.0019531-0.0947266-0.0058594   c-0.4101563-0.0512695-0.7021484-0.4262695-0.6503906-0.8374023c0.3525391-2.8120117,0.3232422-5.6591797-0.0878906-8.4624023   c-0.0595703-0.4101563,0.2236328-0.7910156,0.6337891-0.8510742c0.4023438-0.0585938,0.7910156,0.2236328,0.8505859,0.6333008   c0.4296875,2.9375,0.4609375,5.9204102,0.0917969,8.8666992C60.1533203,54.1445313,59.8310547,54.421875,59.4580078,54.421875z" fill="#373684"/><path d="M22.0957031,59.6264648c-0.1943359,0-0.3876953-0.074707-0.5341797-0.2236328   c-0.2910156-0.2954102-0.2871094-0.7705078,0.0078125-1.0610352c0.859375-0.8452148,1.5957031-1.8037109,2.1894531-2.8476563   c0.2050781-0.359375,0.6630859-0.4868164,1.0234375-0.28125c0.359375,0.2045898,0.4853516,0.6625977,0.28125,1.0224609   c-0.6630859,1.1645508-1.484375,2.2329102-2.4414063,3.1757813C22.4755859,59.5546875,22.2861328,59.6264648,22.0957031,59.6264648   z" fill="#373684"/><path d="M26.4882813,60.112793c-0.1972656,0-0.3935547-0.0771484-0.5410156-0.2299805   c-0.2871094-0.2988281-0.2773438-0.7734375,0.0214844-1.0605469c0.7763672-0.7470703,1.4160156-1.6640625,1.8505859-2.652832   c0.1660156-0.3798828,0.609375-0.5507813,0.9882813-0.3847656c0.3789063,0.1665039,0.5517578,0.6088867,0.3847656,0.9882813   c-0.5117188,1.1660156-1.2675781,2.2490234-2.1845703,3.1303711C26.8623047,60.043457,26.6757813,60.112793,26.4882813,60.112793z" fill="#373684"/><path d="M31.0283203,60.1870117c-0.1845703,0-0.3691406-0.0673828-0.5136719-0.2036133   c-0.3017578-0.2836914-0.3164063-0.7583008-0.0322266-1.0600586c0.9619141-1.0229492,1.8378906-2.1381836,2.6035156-3.3149414   c0.2265625-0.3461914,0.6914063-0.4467773,1.0380859-0.2192383c0.3476563,0.2260742,0.4453125,0.6904297,0.2197266,1.0375977   c-0.8154297,1.2509766-1.7460938,2.4365234-2.7695313,3.5239258   C31.4267578,60.1079102,31.2275391,60.1870117,31.0283203,60.1870117z" fill="#373684"/><path d="M35.6337891,60.1352539c-0.2216797,0-0.4414063-0.0976563-0.5898438-0.2851563   c-0.2568359-0.3251953-0.2011719-0.796875,0.1240234-1.0537109c0.9326172-0.7358398,1.6679688-1.7558594,2.0712891-2.8720703   c0.140625-0.390625,0.5722656-0.5908203,0.9599609-0.4511719c0.3896484,0.140625,0.5908203,0.5708008,0.4501953,0.9599609   c-0.5039063,1.3964844-1.3857422,2.6206055-2.5517578,3.5410156   C35.9599609,60.0825195,35.7958984,60.1352539,35.6337891,60.1352539z" fill="#373684"/><path d="M40.9892578,59.9887695c-0.1962891,0-0.3935547-0.0771484-0.5400391-0.2299805   c-0.2880859-0.2988281-0.2783203-0.7734375,0.0205078-1.0605469c0.7763672-0.7470703,1.3369141-1.7368164,1.5791016-2.7875977   c0.0917969-0.4038086,0.4941406-0.6586914,0.8984375-0.5625c0.4042969,0.0927734,0.65625,0.4956055,0.5625,0.8994141   c-0.3056641,1.3310547-1.0166016,2.5854492-2.0009766,3.5317383   C41.3632813,59.9194336,41.1767578,59.9887695,40.9892578,59.9887695z" fill="#373684"/><path d="M45.5351563,59.9829102c-0.1386719,0-0.2802734-0.0385742-0.40625-0.1201172   c-0.3476563-0.2246094-0.4472656-0.6884766-0.2226563-1.0366211c0.5605469-0.8681641,1.0253906-1.7983398,1.3808594-2.7646484   c0.1445313-0.3881836,0.5742188-0.5869141,0.9638672-0.4443359c0.3886719,0.1430664,0.5869141,0.5742188,0.4443359,0.9628906   c-0.3945313,1.0698242-0.9091797,2.0991211-1.5292969,3.0595703C46.0224609,59.8618164,45.78125,59.9829102,45.5351563,59.9829102z   " fill="#373684"/></g></svg>