<?xml version="1.0" standalone="no"?>
<!DOCTYPE svg PUBLIC "-//W3C//DTD SVG 20010904//EN"
 "http://www.w3.org/TR/2001/REC-SVG-20010904/DTD/svg10.dtd">
<svg version="1.0" xmlns="http://www.w3.org/2000/svg"
 width="1014.000000pt" height="325.000000pt" viewBox="0 0 1014.000000 325.000000"
 preserveAspectRatio="xMidYMid meet">

<g transform="translate(0.000000,325.000000) scale(0.100000,-0.100000)"
fill="#000000" stroke="none">
<path d="M1834 2974 c-18 -14 -18 -14 6 -3 31 14 36 19 24 19 -6 0 -19 -7 -30
-16z"/>
<path d="M1749 2893 c-13 -16 -12 -17 4 -4 9 7 17 15 17 17 0 8 -8 3 -21 -13z"/>
<path d="M1578 2833 c7 -3 16 -2 19 1 4 3 -2 6 -13 5 -11 0 -14 -3 -6 -6z"/>
<path d="M3960 2380 c-8 -5 -27 -10 -43 -10 -15 0 -35 -4 -45 -9 -9 -5 -33
-16 -53 -25 -56 -24 -162 -135 -183 -192 -10 -27 -23 -53 -27 -58 -12 -13 -11
-202 0 -224 5 -9 16 -33 25 -52 25 -56 48 -86 101 -128 65 -52 120 -78 291
-141 231 -85 284 -130 284 -238 -1 -79 -16 -125 -52 -156 -55 -46 -92 -57
-193 -57 -84 0 -98 3 -156 32 -35 18 -91 59 -124 90 -33 32 -67 58 -76 58 -18
0 -139 -131 -139 -150 0 -24 117 -126 185 -162 148 -77 299 -97 451 -58 99 26
170 68 244 147 80 85 103 147 104 278 1 146 -28 203 -154 299 -55 42 -139 86
-163 86 -7 0 -39 13 -72 29 -33 16 -78 34 -100 41 -95 30 -130 48 -180 92
-110 97 -65 261 84 305 110 32 256 -11 363 -106 l47 -42 68 72 c37 39 70 76
72 81 8 23 -133 138 -195 158 -21 7 -48 16 -59 21 -57 22 -279 37 -305 19z"/>
<path d="M4773 2372 c-24 -16 -30 -62 -27 -227 2 -93 6 -399 8 -680 3 -280 7
-519 9 -530 4 -18 13 -20 115 -23 86 -2 112 0 113 10 1 7 0 79 -1 159 -2 151
7 198 43 227 13 11 21 10 47 -10 18 -13 39 -36 47 -53 9 -16 19 -32 22 -35 3
-3 34 -41 67 -86 92 -121 95 -125 142 -172 l43 -43 121 3 c70 2 123 7 125 13
2 6 -30 53 -69 106 -125 165 -274 354 -292 368 -10 8 -24 30 -31 48 l-15 34
89 102 c189 217 299 351 295 359 -9 14 -164 9 -218 -7 -46 -14 -64 -28 -148
-118 -52 -56 -114 -130 -137 -164 -51 -74 -84 -103 -111 -96 -20 5 -20 15 -20
409 l0 404 -82 0 c-46 0 -92 3 -103 5 -11 3 -25 2 -32 -3z"/>
<path d="M8390 2372 c-100 -3 -138 -19 -124 -51 3 -9 7 -320 9 -692 2 -484 6
-683 15 -698 10 -20 18 -22 113 -19 l102 3 0 729 c0 479 -3 730 -10 730 -5 1
-53 0 -105 -2z"/>
<path d="M1393 2192 l-33 -3 0 -509 c0 -555 -4 -520 56 -520 38 0 200 -48 276
-81 96 -42 183 -96 243 -151 l52 -47 24 25 c103 111 342 219 572 259 l37 6 0
509 0 508 -67 8 c-181 19 -393 -53 -533 -182 l-59 -56 -31 35 c-48 55 -157
124 -250 158 -83 30 -211 48 -287 41z"/>
<path d="M6120 1940 c-8 -5 -24 -10 -35 -10 -11 0 -53 -16 -93 -36 -87 -43
-213 -164 -251 -240 -13 -27 -28 -57 -32 -66 -5 -10 -9 -27 -9 -38 0 -11 -4
-20 -10 -20 -14 0 -13 -215 2 -259 34 -106 66 -160 144 -236 153 -151 429
-199 639 -112 122 51 229 149 283 261 70 144 70 330 1 473 -33 69 -208 233
-247 233 -9 0 -45 16 -114 51 -24 12 -259 11 -278 -1z m266 -240 c65 -32 134
-92 134 -116 0 -8 5 -14 10 -14 6 0 10 -9 10 -19 0 -11 5 -23 10 -26 6 -3 10
-17 10 -30 0 -13 5 -27 10 -30 13 -8 13 -79 1 -119 -5 -17 -15 -50 -22 -74
-16 -54 -75 -108 -164 -151 -51 -25 -77 -31 -130 -31 -36 0 -73 4 -83 9 -9 5
-39 19 -67 32 -71 34 -148 113 -168 173 -21 62 -22 168 -1 229 18 53 91 140
138 164 101 53 210 54 312 3z"/>
<path d="M7405 1940 c-3 -5 -16 -10 -29 -10 -12 0 -26 -4 -31 -8 -6 -5 -41
-21 -78 -37 -90 -37 -202 -147 -253 -246 -19 -38 -34 -75 -34 -84 0 -8 -4 -15
-10 -15 -6 0 -10 -50 -10 -130 0 -72 5 -139 10 -150 6 -11 15 -29 20 -40 6
-11 10 -27 10 -35 0 -8 3 -15 8 -15 4 0 14 -15 21 -32 24 -55 139 -161 213
-196 178 -85 398 -82 569 9 136 73 244 222 269 371 49 286 -104 522 -401 617
-44 14 -265 15 -274 1z m249 -233 c72 -33 128 -86 161 -152 25 -49 28 -65 28
-153 -1 -86 -4 -105 -27 -150 -29 -57 -78 -99 -164 -138 -69 -32 -174 -34
-227 -4 -20 11 -41 20 -47 20 -21 0 -118 92 -144 135 -47 80 -50 214 -7 299
21 41 92 115 127 133 95 50 206 53 300 10z"/>
<path d="M8659 1927 c-10 -10 -19 -24 -19 -32 0 -11 44 -107 91 -197 5 -10 9
-25 9 -33 0 -8 5 -15 10 -15 6 0 10 -12 10 -27 0 -16 14 -55 30 -88 17 -33 30
-65 30 -72 0 -7 5 -13 10 -13 6 0 10 -9 10 -20 0 -11 4 -28 9 -38 12 -23 52
-112 61 -137 5 -11 14 -36 21 -55 7 -19 26 -55 41 -79 15 -25 28 -55 28 -67 0
-12 14 -48 30 -79 36 -68 37 -90 9 -151 -27 -57 -115 -154 -139 -154 -11 0
-22 -4 -25 -10 -3 -5 -15 -10 -25 -10 -36 0 -67 -58 -73 -137 l-6 -73 29 0
c50 0 133 21 185 48 117 58 197 155 276 330 61 139 447 1087 451 1110 3 15 -7
17 -97 14 -107 -3 -139 -15 -150 -54 -3 -13 -15 -41 -25 -63 -10 -22 -28 -69
-40 -105 -12 -36 -26 -69 -31 -75 -5 -5 -9 -17 -9 -27 0 -9 -9 -33 -20 -53
-11 -20 -20 -42 -20 -49 0 -12 -14 -44 -51 -118 -5 -10 -9 -27 -9 -37 0 -11
-4 -23 -10 -26 -5 -3 -10 -17 -10 -31 0 -29 -14 -60 -43 -91 l-20 -22 -17 37
c-10 20 -22 51 -28 67 -6 17 -50 131 -98 255 -48 124 -100 258 -115 299 -16
41 -33 79 -39 85 -6 6 -51 11 -106 11 -78 0 -99 -3 -115 -18z"/>
<path d="M3317 1290 c7 -8 16 -27 22 -40 6 -17 10 -19 10 -8 1 9 -9 27 -21 40
-13 13 -18 17 -11 8z"/>
<path d="M3355 855 c0 -203 1 -285 2 -182 2 104 2 270 0 370 -1 100 -2 16 -2
-188z"/>
<path d="M802 1035 c0 -16 2 -22 5 -12 2 9 2 23 0 30 -3 6 -5 -1 -5 -18z"/>
<path d="M802 975 c0 -16 2 -22 5 -12 2 9 2 23 0 30 -3 6 -5 -1 -5 -18z"/>
<path d="M800 616 l0 -285 -22 -4 c-20 -4 -19 -4 5 -6 l27 -1 0 290 c0 160 -2
290 -5 290 -3 0 -5 -128 -5 -284z"/>
<path d="M3032 560 c0 -14 2 -19 5 -12 2 6 2 18 0 25 -3 6 -5 1 -5 -13z"/>
<path d="M3337 461 c-4 -17 -3 -21 5 -13 5 5 8 16 6 23 -3 8 -7 3 -11 -10z"/>
<path d="M2960 397 l-23 -32 29 27 c15 15 26 30 23 33 -3 2 -16 -10 -29 -28z"/>
<path d="M3272 374 c-24 -19 -39 -34 -33 -34 6 0 28 16 49 35 47 44 40 44 -16
-1z"/>
<path d="M2890 340 c-14 -11 -20 -20 -14 -20 6 0 19 9 29 20 23 25 17 25 -15
0z"/>
<path d="M3198 333 c7 -3 16 -2 19 1 4 3 -2 6 -13 5 -11 0 -14 -3 -6 -6z"/>
<path d="M1085 317 c31 -21 85 -40 92 -33 3 3 1 6 -6 6 -6 0 -31 9 -53 20 -48
23 -61 26 -33 7z"/>
<path d="M2735 280 c-27 -7 -27 -8 -5 -8 14 0 36 4 50 8 20 6 21 8 5 8 -11 0
-33 -4 -50 -8z"/>
<path d="M1418 263 c7 -3 16 -2 19 1 4 3 -2 6 -13 5 -11 0 -14 -3 -6 -6z"/>
<path d="M1648 263 c6 -2 18 -2 25 0 6 3 1 5 -13 5 -14 0 -19 -2 -12 -5z"/>
<path d="M1733 263 c26 -2 67 -2 90 0 23 2 2 3 -48 3 -49 0 -68 -1 -42 -3z"/>
<path d="M1898 263 c7 -3 16 -2 19 1 4 3 -2 6 -13 5 -11 0 -14 -3 -6 -6z"/>
<path d="M2218 263 c7 -3 16 -2 19 1 4 3 -2 6 -13 5 -11 0 -14 -3 -6 -6z"/>
<path d="M2303 263 c9 -2 25 -2 35 0 9 3 1 5 -18 5 -19 0 -27 -2 -17 -5z"/>
<path d="M2498 263 c17 -2 47 -2 65 0 17 2 3 4 -33 4 -36 0 -50 -2 -32 -4z"/>
<path d="M2618 263 c6 -2 18 -2 25 0 6 3 1 5 -13 5 -14 0 -19 -2 -12 -5z"/>
</g>
</svg>
